<mxfile host="app.diagrams.net" modified="2023-09-11T08:40:28.060Z" agent="Mozilla/5.0 (Windows NT 10.0; Win64; x64) AppleWebKit/537.36 (KHTML, like Gecko) Chrome/115.0.0.0 Safari/537.36" version="21.5.2" etag="R3FQuBRUyH_ZCq2yTNTJ" type="github">
  <diagram name="Page-1" id="NbqTI41q3w4NnUKA9Z5a">
    <mxGraphModel>
      <root>
        <mxCell id="0" />
        <mxCell id="1" parent="0" />
      </root>
    </mxGraphModel>
  </diagram>
</mxfile>
